<svg xmlns="http://www.w3.org/2000/svg" width="31.099" height="31.099" viewBox="0 0 31.099 31.099"><defs><style>.a{fill:#fbbb00;}.b{fill:#518ef8;}.c{fill:#28b446;}.d{fill:#f14336;}</style></defs><path class="a" d="M6.892,148.663,5.81,152.7l-3.957.084a15.577,15.577,0,0,1-.114-14.52h0l3.522.646,1.543,3.5a9.28,9.28,0,0,0,.087,6.248Z" transform="translate(0 -129.87)"/><path class="b" d="M276.564,208.176a15.544,15.544,0,0,1-5.543,15.031h0l-4.437-.226-.628-3.92a9.268,9.268,0,0,0,3.987-4.732h-8.315v-6.151h14.936Z" transform="translate(-245.737 -195.531)"/><path class="c" d="M53.939,318.29h0a15.555,15.555,0,0,1-23.431-4.757l5.039-4.125a9.248,9.248,0,0,0,13.326,4.735Z" transform="translate(-28.656 -290.615)"/><path class="d" d="M52.36,3.58,47.323,7.7A9.247,9.247,0,0,0,33.69,12.546L28.625,8.4h0A15.553,15.553,0,0,1,52.36,3.58Z" transform="translate(-26.885 0)"/></svg>